<mxfile host="Electron" agent="Mozilla/5.0 (Windows NT 10.0; Win64; x64) AppleWebKit/537.36 (KHTML, like Gecko) draw.io/24.7.17 Chrome/128.0.6613.36 Electron/32.0.1 Safari/537.36" version="24.7.17">
  <diagram id="R2lEEEUBdFMjLlhIrx00" name="Page-1">
    <mxGraphModel dx="3930" dy="645" grid="1" gridSize="10" guides="1" tooltips="1" connect="1" arrows="1" fold="1" page="1" pageScale="1" pageWidth="850" pageHeight="1100" math="0" shadow="0" extFonts="Permanent Marker^https://fonts.googleapis.com/css?family=Permanent+Marker">
      <root>
        <mxCell id="0" />
        <mxCell id="1" parent="0" />
        <mxCell id="BHKNhd8OsX8QCa_C4OJv-13" value="Driver" style="rounded=0;whiteSpace=wrap;html=1;" parent="1" vertex="1">
          <mxGeometry x="-5" y="1145" width="140" height="90" as="geometry" />
        </mxCell>
        <mxCell id="BHKNhd8OsX8QCa_C4OJv-14" value="" style="endArrow=none;html=1;rounded=0;exitX=1.016;exitY=0.134;exitDx=0;exitDy=0;entryX=0;entryY=1;entryDx=0;entryDy=0;exitPerimeter=0;" parent="1" source="BHKNhd8OsX8QCa_C4OJv-13" target="BHKNhd8OsX8QCa_C4OJv-15" edge="1">
          <mxGeometry width="50" height="50" relative="1" as="geometry">
            <mxPoint x="167" y="1170" as="sourcePoint" />
            <mxPoint x="205" y="1125" as="targetPoint" />
          </mxGeometry>
        </mxCell>
        <mxCell id="BHKNhd8OsX8QCa_C4OJv-15" value="Vehicle_ID" style="ellipse;whiteSpace=wrap;html=1;" parent="1" vertex="1">
          <mxGeometry x="245" y="1170" width="90" height="60" as="geometry" />
        </mxCell>
        <mxCell id="BHKNhd8OsX8QCa_C4OJv-16" value="&lt;u&gt;Driver_id&lt;/u&gt;" style="ellipse;whiteSpace=wrap;html=1;" parent="1" vertex="1">
          <mxGeometry x="240" y="1080" width="90" height="60" as="geometry" />
        </mxCell>
        <mxCell id="BHKNhd8OsX8QCa_C4OJv-17" value="" style="endArrow=none;html=1;rounded=0;exitX=0.992;exitY=0.058;exitDx=0;exitDy=0;entryX=0.256;entryY=0.917;entryDx=0;entryDy=0;entryPerimeter=0;exitPerimeter=0;" parent="1" source="BHKNhd8OsX8QCa_C4OJv-13" target="BHKNhd8OsX8QCa_C4OJv-16" edge="1">
          <mxGeometry width="50" height="50" relative="1" as="geometry">
            <mxPoint x="255" y="1265" as="sourcePoint" />
            <mxPoint x="135" y="1105" as="targetPoint" />
          </mxGeometry>
        </mxCell>
        <mxCell id="BHKNhd8OsX8QCa_C4OJv-18" value="" style="endArrow=none;html=1;rounded=0;exitX=0.933;exitY=0.012;exitDx=0;exitDy=0;entryX=0.414;entryY=1.024;entryDx=0;entryDy=0;entryPerimeter=0;exitPerimeter=0;" parent="1" source="BHKNhd8OsX8QCa_C4OJv-13" target="BHKNhd8OsX8QCa_C4OJv-19" edge="1">
          <mxGeometry width="50" height="50" relative="1" as="geometry">
            <mxPoint x="110" y="1155" as="sourcePoint" />
            <mxPoint x="145" y="1115" as="targetPoint" />
          </mxGeometry>
        </mxCell>
        <mxCell id="BHKNhd8OsX8QCa_C4OJv-19" value="License Pic" style="ellipse;whiteSpace=wrap;html=1;" parent="1" vertex="1">
          <mxGeometry x="220" y="1010" width="100" height="60" as="geometry" />
        </mxCell>
        <mxCell id="BHKNhd8OsX8QCa_C4OJv-24" value="Vehicle" style="rounded=0;whiteSpace=wrap;html=1;" parent="1" vertex="1">
          <mxGeometry x="-330" y="1545" width="140" height="90" as="geometry" />
        </mxCell>
        <mxCell id="BHKNhd8OsX8QCa_C4OJv-25" value="" style="endArrow=none;html=1;rounded=0;exitX=0.929;exitY=0;exitDx=0;exitDy=0;entryX=0;entryY=1;entryDx=0;entryDy=0;exitPerimeter=0;" parent="1" source="BHKNhd8OsX8QCa_C4OJv-24" target="BHKNhd8OsX8QCa_C4OJv-26" edge="1">
          <mxGeometry width="50" height="50" relative="1" as="geometry">
            <mxPoint x="-158" y="1570" as="sourcePoint" />
            <mxPoint x="-120" y="1525" as="targetPoint" />
          </mxGeometry>
        </mxCell>
        <mxCell id="BHKNhd8OsX8QCa_C4OJv-26" value="Vehicle_id" style="ellipse;whiteSpace=wrap;html=1;" parent="1" vertex="1">
          <mxGeometry x="-120" y="1475" width="90" height="60" as="geometry" />
        </mxCell>
        <mxCell id="BHKNhd8OsX8QCa_C4OJv-27" value="&lt;u&gt;Driver_id&lt;/u&gt;" style="ellipse;whiteSpace=wrap;html=1;" parent="1" vertex="1">
          <mxGeometry x="-210" y="1445" width="90" height="60" as="geometry" />
        </mxCell>
        <mxCell id="BHKNhd8OsX8QCa_C4OJv-28" value="" style="endArrow=none;html=1;rounded=0;exitX=0.75;exitY=0;exitDx=0;exitDy=0;entryX=0.256;entryY=0.917;entryDx=0;entryDy=0;entryPerimeter=0;" parent="1" source="BHKNhd8OsX8QCa_C4OJv-24" target="BHKNhd8OsX8QCa_C4OJv-27" edge="1">
          <mxGeometry width="50" height="50" relative="1" as="geometry">
            <mxPoint x="-70" y="1665" as="sourcePoint" />
            <mxPoint x="-190" y="1505" as="targetPoint" />
          </mxGeometry>
        </mxCell>
        <mxCell id="BHKNhd8OsX8QCa_C4OJv-29" value="" style="endArrow=none;html=1;rounded=0;exitX=0.5;exitY=0;exitDx=0;exitDy=0;entryX=0.414;entryY=1.024;entryDx=0;entryDy=0;entryPerimeter=0;" parent="1" source="BHKNhd8OsX8QCa_C4OJv-24" target="BHKNhd8OsX8QCa_C4OJv-30" edge="1">
          <mxGeometry width="50" height="50" relative="1" as="geometry">
            <mxPoint x="-215" y="1555" as="sourcePoint" />
            <mxPoint x="-180" y="1515" as="targetPoint" />
          </mxGeometry>
        </mxCell>
        <mxCell id="BHKNhd8OsX8QCa_C4OJv-30" value="Document" style="ellipse;whiteSpace=wrap;html=1;" parent="1" vertex="1">
          <mxGeometry x="-320" y="1435" width="100" height="60" as="geometry" />
        </mxCell>
        <mxCell id="BHKNhd8OsX8QCa_C4OJv-31" value="" style="endArrow=none;html=1;rounded=0;exitX=0.25;exitY=0;exitDx=0;exitDy=0;entryX=0.704;entryY=0.95;entryDx=0;entryDy=0;entryPerimeter=0;" parent="1" source="BHKNhd8OsX8QCa_C4OJv-24" target="BHKNhd8OsX8QCa_C4OJv-32" edge="1">
          <mxGeometry width="50" height="50" relative="1" as="geometry">
            <mxPoint x="-367" y="1545" as="sourcePoint" />
            <mxPoint x="-390" y="1496" as="targetPoint" />
          </mxGeometry>
        </mxCell>
        <mxCell id="BHKNhd8OsX8QCa_C4OJv-32" value="Vehicle_Number" style="ellipse;whiteSpace=wrap;html=1;" parent="1" vertex="1">
          <mxGeometry x="-420" y="1435" width="90" height="60" as="geometry" />
        </mxCell>
        <mxCell id="BHKNhd8OsX8QCa_C4OJv-33" value="" style="endArrow=none;html=1;rounded=0;exitX=0;exitY=0;exitDx=0;exitDy=0;entryX=1;entryY=1;entryDx=0;entryDy=0;" parent="1" source="BHKNhd8OsX8QCa_C4OJv-24" target="BHKNhd8OsX8QCa_C4OJv-34" edge="1">
          <mxGeometry width="50" height="50" relative="1" as="geometry">
            <mxPoint x="-285" y="1555" as="sourcePoint" />
            <mxPoint x="-347" y="1502" as="targetPoint" />
          </mxGeometry>
        </mxCell>
        <mxCell id="BHKNhd8OsX8QCa_C4OJv-34" value="Seating_Capacity" style="ellipse;whiteSpace=wrap;html=1;" parent="1" vertex="1">
          <mxGeometry x="-500" y="1485" width="90" height="60" as="geometry" />
        </mxCell>
        <mxCell id="BHKNhd8OsX8QCa_C4OJv-35" value="AC/Non-AC" style="ellipse;whiteSpace=wrap;html=1;" parent="1" vertex="1">
          <mxGeometry x="-90" y="1555" width="90" height="60" as="geometry" />
        </mxCell>
        <mxCell id="BHKNhd8OsX8QCa_C4OJv-36" value="" style="endArrow=none;html=1;rounded=0;exitX=1;exitY=0.25;exitDx=0;exitDy=0;entryX=0;entryY=0.5;entryDx=0;entryDy=0;" parent="1" source="BHKNhd8OsX8QCa_C4OJv-24" target="BHKNhd8OsX8QCa_C4OJv-35" edge="1">
          <mxGeometry width="50" height="50" relative="1" as="geometry">
            <mxPoint x="120.8400000000006" y="1572.8200000000002" as="sourcePoint" />
            <mxPoint x="63" y="1572" as="targetPoint" />
          </mxGeometry>
        </mxCell>
        <mxCell id="BHKNhd8OsX8QCa_C4OJv-54" value="Ride Booking" style="rounded=0;whiteSpace=wrap;html=1;" parent="1" vertex="1">
          <mxGeometry x="-1595" y="1335" width="140" height="90" as="geometry" />
        </mxCell>
        <mxCell id="BHKNhd8OsX8QCa_C4OJv-55" value="" style="endArrow=none;html=1;rounded=0;exitX=1;exitY=0;exitDx=0;exitDy=0;entryX=0;entryY=1;entryDx=0;entryDy=0;" parent="1" source="BHKNhd8OsX8QCa_C4OJv-54" target="BHKNhd8OsX8QCa_C4OJv-56" edge="1">
          <mxGeometry width="50" height="50" relative="1" as="geometry">
            <mxPoint x="-1423" y="1360" as="sourcePoint" />
            <mxPoint x="-1385" y="1315" as="targetPoint" />
          </mxGeometry>
        </mxCell>
        <mxCell id="BHKNhd8OsX8QCa_C4OJv-56" value="Driver_id" style="ellipse;whiteSpace=wrap;html=1;" parent="1" vertex="1">
          <mxGeometry x="-1375" y="1295" width="90" height="60" as="geometry" />
        </mxCell>
        <mxCell id="BHKNhd8OsX8QCa_C4OJv-57" value="&lt;u&gt;Booking_id&lt;/u&gt;" style="ellipse;whiteSpace=wrap;html=1;" parent="1" vertex="1">
          <mxGeometry x="-1400" y="1230" width="90" height="60" as="geometry" />
        </mxCell>
        <mxCell id="BHKNhd8OsX8QCa_C4OJv-58" value="" style="endArrow=none;html=1;rounded=0;exitX=0.75;exitY=0;exitDx=0;exitDy=0;entryX=0.256;entryY=0.917;entryDx=0;entryDy=0;entryPerimeter=0;" parent="1" source="BHKNhd8OsX8QCa_C4OJv-54" target="BHKNhd8OsX8QCa_C4OJv-57" edge="1">
          <mxGeometry width="50" height="50" relative="1" as="geometry">
            <mxPoint x="-1335" y="1455" as="sourcePoint" />
            <mxPoint x="-1455" y="1295" as="targetPoint" />
          </mxGeometry>
        </mxCell>
        <mxCell id="BHKNhd8OsX8QCa_C4OJv-61" value="" style="endArrow=none;html=1;rounded=0;exitX=0.5;exitY=0;exitDx=0;exitDy=0;entryX=0.704;entryY=0.95;entryDx=0;entryDy=0;entryPerimeter=0;" parent="1" source="BHKNhd8OsX8QCa_C4OJv-54" target="BHKNhd8OsX8QCa_C4OJv-62" edge="1">
          <mxGeometry width="50" height="50" relative="1" as="geometry">
            <mxPoint x="-1602" y="1335" as="sourcePoint" />
            <mxPoint x="-1625" y="1286" as="targetPoint" />
          </mxGeometry>
        </mxCell>
        <mxCell id="BHKNhd8OsX8QCa_C4OJv-62" value="BookingStatus" style="ellipse;whiteSpace=wrap;html=1;" parent="1" vertex="1">
          <mxGeometry x="-1565" y="1195" width="90" height="60" as="geometry" />
        </mxCell>
        <mxCell id="BHKNhd8OsX8QCa_C4OJv-79" value="Lobby" style="rounded=0;whiteSpace=wrap;html=1;" parent="1" vertex="1">
          <mxGeometry x="-1985" y="650" width="140" height="90" as="geometry" />
        </mxCell>
        <mxCell id="BHKNhd8OsX8QCa_C4OJv-82" value="FareSplit" style="ellipse;whiteSpace=wrap;html=1;" parent="1" vertex="1">
          <mxGeometry x="-2155" y="590" width="90" height="60" as="geometry" />
        </mxCell>
        <mxCell id="BHKNhd8OsX8QCa_C4OJv-83" value="" style="endArrow=none;html=1;rounded=0;exitX=0;exitY=0;exitDx=0;exitDy=0;entryX=1;entryY=1;entryDx=0;entryDy=0;" parent="1" source="BHKNhd8OsX8QCa_C4OJv-79" target="BHKNhd8OsX8QCa_C4OJv-82" edge="1">
          <mxGeometry width="50" height="50" relative="1" as="geometry">
            <mxPoint x="-1940" y="660" as="sourcePoint" />
            <mxPoint x="-2002" y="607" as="targetPoint" />
          </mxGeometry>
        </mxCell>
        <mxCell id="BHKNhd8OsX8QCa_C4OJv-84" value="Members_No" style="ellipse;whiteSpace=wrap;html=1;" parent="1" vertex="1">
          <mxGeometry x="-2075" y="540" width="90" height="60" as="geometry" />
        </mxCell>
        <mxCell id="BHKNhd8OsX8QCa_C4OJv-85" value="" style="endArrow=none;html=1;rounded=0;exitX=0.25;exitY=0;exitDx=0;exitDy=0;entryX=0.704;entryY=0.95;entryDx=0;entryDy=0;entryPerimeter=0;" parent="1" source="BHKNhd8OsX8QCa_C4OJv-79" target="BHKNhd8OsX8QCa_C4OJv-84" edge="1">
          <mxGeometry width="50" height="50" relative="1" as="geometry">
            <mxPoint x="-1992" y="650" as="sourcePoint" />
            <mxPoint x="-2015" y="601" as="targetPoint" />
          </mxGeometry>
        </mxCell>
        <mxCell id="BHKNhd8OsX8QCa_C4OJv-86" value="Passenger_id" style="ellipse;whiteSpace=wrap;html=1;" parent="1" vertex="1">
          <mxGeometry x="-1975" y="540" width="100" height="60" as="geometry" />
        </mxCell>
        <mxCell id="BHKNhd8OsX8QCa_C4OJv-87" value="" style="endArrow=none;html=1;rounded=0;exitX=0.5;exitY=0;exitDx=0;exitDy=0;entryX=0.414;entryY=1.024;entryDx=0;entryDy=0;entryPerimeter=0;" parent="1" source="BHKNhd8OsX8QCa_C4OJv-79" target="BHKNhd8OsX8QCa_C4OJv-86" edge="1">
          <mxGeometry width="50" height="50" relative="1" as="geometry">
            <mxPoint x="-1870" y="660" as="sourcePoint" />
            <mxPoint x="-1835" y="620" as="targetPoint" />
          </mxGeometry>
        </mxCell>
        <mxCell id="BHKNhd8OsX8QCa_C4OJv-88" value="&lt;u&gt;Lobby_id&lt;/u&gt;" style="ellipse;whiteSpace=wrap;html=1;" parent="1" vertex="1">
          <mxGeometry x="-1865" y="550" width="90" height="60" as="geometry" />
        </mxCell>
        <mxCell id="BHKNhd8OsX8QCa_C4OJv-89" value="" style="endArrow=none;html=1;rounded=0;exitX=0.75;exitY=0;exitDx=0;exitDy=0;entryX=0.256;entryY=0.917;entryDx=0;entryDy=0;entryPerimeter=0;" parent="1" source="BHKNhd8OsX8QCa_C4OJv-79" target="BHKNhd8OsX8QCa_C4OJv-88" edge="1">
          <mxGeometry width="50" height="50" relative="1" as="geometry">
            <mxPoint x="-1725" y="770" as="sourcePoint" />
            <mxPoint x="-1845" y="610" as="targetPoint" />
          </mxGeometry>
        </mxCell>
        <mxCell id="BHKNhd8OsX8QCa_C4OJv-90" value="" style="endArrow=none;html=1;rounded=0;exitX=0.929;exitY=0;exitDx=0;exitDy=0;entryX=0;entryY=1;entryDx=0;entryDy=0;exitPerimeter=0;" parent="1" source="BHKNhd8OsX8QCa_C4OJv-79" target="BHKNhd8OsX8QCa_C4OJv-91" edge="1">
          <mxGeometry width="50" height="50" relative="1" as="geometry">
            <mxPoint x="-1813" y="675" as="sourcePoint" />
            <mxPoint x="-1775" y="630" as="targetPoint" />
          </mxGeometry>
        </mxCell>
        <mxCell id="BHKNhd8OsX8QCa_C4OJv-91" value="Creater_id" style="ellipse;whiteSpace=wrap;html=1;" parent="1" vertex="1">
          <mxGeometry x="-1775" y="580" width="90" height="60" as="geometry" />
        </mxCell>
        <mxCell id="BHKNhd8OsX8QCa_C4OJv-93" value="Passenger" style="rounded=0;whiteSpace=wrap;html=1;" parent="1" vertex="1">
          <mxGeometry x="-1255" y="655" width="140" height="90" as="geometry" />
        </mxCell>
        <mxCell id="BHKNhd8OsX8QCa_C4OJv-94" value="Passenger Name" style="ellipse;whiteSpace=wrap;html=1;" parent="1" vertex="1">
          <mxGeometry x="-1230" y="520" width="100" height="60" as="geometry" />
        </mxCell>
        <mxCell id="BHKNhd8OsX8QCa_C4OJv-95" value="" style="endArrow=none;html=1;rounded=0;exitX=0.5;exitY=0;exitDx=0;exitDy=0;entryX=0.414;entryY=1.024;entryDx=0;entryDy=0;entryPerimeter=0;" parent="1" source="BHKNhd8OsX8QCa_C4OJv-93" target="BHKNhd8OsX8QCa_C4OJv-94" edge="1">
          <mxGeometry width="50" height="50" relative="1" as="geometry">
            <mxPoint x="-1140" y="665" as="sourcePoint" />
            <mxPoint x="-1105" y="625" as="targetPoint" />
          </mxGeometry>
        </mxCell>
        <mxCell id="BHKNhd8OsX8QCa_C4OJv-96" value="&lt;u&gt;Passenger_id&lt;/u&gt;" style="ellipse;whiteSpace=wrap;html=1;" parent="1" vertex="1">
          <mxGeometry x="-1100" y="540" width="90" height="60" as="geometry" />
        </mxCell>
        <mxCell id="BHKNhd8OsX8QCa_C4OJv-97" value="" style="endArrow=none;html=1;rounded=0;exitX=0.75;exitY=0;exitDx=0;exitDy=0;entryX=0.256;entryY=0.917;entryDx=0;entryDy=0;entryPerimeter=0;" parent="1" source="BHKNhd8OsX8QCa_C4OJv-93" target="BHKNhd8OsX8QCa_C4OJv-96" edge="1">
          <mxGeometry width="50" height="50" relative="1" as="geometry">
            <mxPoint x="-995" y="775" as="sourcePoint" />
            <mxPoint x="-1115" y="615" as="targetPoint" />
          </mxGeometry>
        </mxCell>
        <mxCell id="BHKNhd8OsX8QCa_C4OJv-116" value="1" style="text;html=1;align=center;verticalAlign=middle;resizable=0;points=[];autosize=1;strokeColor=none;fillColor=none;" parent="1" vertex="1">
          <mxGeometry x="-1115" y="665" width="30" height="30" as="geometry" />
        </mxCell>
        <mxCell id="BHKNhd8OsX8QCa_C4OJv-118" value="" style="endArrow=none;html=1;rounded=0;exitX=0.5;exitY=1;exitDx=0;exitDy=0;entryX=1;entryY=0.5;entryDx=0;entryDy=0;" parent="1" source="BHKNhd8OsX8QCa_C4OJv-13" target="BHKNhd8OsX8QCa_C4OJv-119" edge="1">
          <mxGeometry width="50" height="50" relative="1" as="geometry">
            <mxPoint x="375" y="695" as="sourcePoint" />
            <mxPoint x="-825" y="1565" as="targetPoint" />
            <Array as="points">
              <mxPoint x="65" y="1405" />
              <mxPoint x="65" y="1755" />
            </Array>
          </mxGeometry>
        </mxCell>
        <mxCell id="BHKNhd8OsX8QCa_C4OJv-119" value="owns" style="rhombus;whiteSpace=wrap;html=1;" parent="1" vertex="1">
          <mxGeometry x="-300" y="1715" width="80" height="80" as="geometry" />
        </mxCell>
        <mxCell id="BHKNhd8OsX8QCa_C4OJv-120" value="" style="endArrow=none;html=1;rounded=0;exitX=0.5;exitY=0;exitDx=0;exitDy=0;entryX=0.5;entryY=1;entryDx=0;entryDy=0;" parent="1" source="BHKNhd8OsX8QCa_C4OJv-119" target="BHKNhd8OsX8QCa_C4OJv-24" edge="1">
          <mxGeometry width="50" height="50" relative="1" as="geometry">
            <mxPoint x="-740" y="1240" as="sourcePoint" />
            <mxPoint x="-350" y="1245" as="targetPoint" />
          </mxGeometry>
        </mxCell>
        <mxCell id="BHKNhd8OsX8QCa_C4OJv-121" value="1" style="text;html=1;align=center;verticalAlign=middle;resizable=0;points=[];autosize=1;strokeColor=none;fillColor=none;" parent="1" vertex="1">
          <mxGeometry x="135" y="1160" width="30" height="30" as="geometry" />
        </mxCell>
        <mxCell id="BHKNhd8OsX8QCa_C4OJv-123" value="" style="endArrow=none;html=1;rounded=0;exitX=1;exitY=0.25;exitDx=0;exitDy=0;entryX=0.015;entryY=0.3;entryDx=0;entryDy=0;entryPerimeter=0;" parent="1" source="BHKNhd8OsX8QCa_C4OJv-54" target="BHKNhd8OsX8QCa_C4OJv-124" edge="1">
          <mxGeometry width="50" height="50" relative="1" as="geometry">
            <mxPoint x="-1130" y="1438" as="sourcePoint" />
            <mxPoint x="-1213" y="1416" as="targetPoint" />
          </mxGeometry>
        </mxCell>
        <mxCell id="BHKNhd8OsX8QCa_C4OJv-124" value="DiscountApplied&lt;div&gt;/SingleRide&lt;/div&gt;" style="ellipse;whiteSpace=wrap;html=1;" parent="1" vertex="1">
          <mxGeometry x="-1375" y="1375" width="90" height="60" as="geometry" />
        </mxCell>
        <mxCell id="BHKNhd8OsX8QCa_C4OJv-126" value="have" style="rhombus;whiteSpace=wrap;html=1;" parent="1" vertex="1">
          <mxGeometry x="-1920" y="1330" width="80" height="80" as="geometry" />
        </mxCell>
        <mxCell id="BHKNhd8OsX8QCa_C4OJv-127" value="" style="endArrow=none;html=1;rounded=0;exitX=1;exitY=0.5;exitDx=0;exitDy=0;entryX=0;entryY=0.409;entryDx=0;entryDy=0;entryPerimeter=0;" parent="1" source="BHKNhd8OsX8QCa_C4OJv-126" target="BHKNhd8OsX8QCa_C4OJv-54" edge="1">
          <mxGeometry width="50" height="50" relative="1" as="geometry">
            <mxPoint x="-1980" y="1375" as="sourcePoint" />
            <mxPoint x="-1570" y="1370" as="targetPoint" />
          </mxGeometry>
        </mxCell>
        <mxCell id="BHKNhd8OsX8QCa_C4OJv-129" value="M" style="text;html=1;align=center;verticalAlign=middle;resizable=0;points=[];autosize=1;strokeColor=none;fillColor=none;" parent="1" vertex="1">
          <mxGeometry x="-1630" y="1345" width="30" height="30" as="geometry" />
        </mxCell>
        <mxCell id="BHKNhd8OsX8QCa_C4OJv-131" value="" style="endArrow=none;html=1;rounded=0;exitX=0.5;exitY=1;exitDx=0;exitDy=0;entryX=0.5;entryY=0;entryDx=0;entryDy=0;" parent="1" source="BHKNhd8OsX8QCa_C4OJv-93" target="BHKNhd8OsX8QCa_C4OJv-132" edge="1">
          <mxGeometry width="50" height="50" relative="1" as="geometry">
            <mxPoint x="-1605" y="915" as="sourcePoint" />
            <mxPoint x="-895" y="1195" as="targetPoint" />
            <Array as="points" />
          </mxGeometry>
        </mxCell>
        <mxCell id="BHKNhd8OsX8QCa_C4OJv-132" value="Books" style="rhombus;whiteSpace=wrap;html=1;" parent="1" vertex="1">
          <mxGeometry x="-1225" y="1485" width="80" height="80" as="geometry" />
        </mxCell>
        <mxCell id="BHKNhd8OsX8QCa_C4OJv-133" value="" style="endArrow=none;html=1;rounded=0;exitX=0.5;exitY=1;exitDx=0;exitDy=0;entryX=0;entryY=0.5;entryDx=0;entryDy=0;" parent="1" source="BHKNhd8OsX8QCa_C4OJv-54" target="BHKNhd8OsX8QCa_C4OJv-132" edge="1">
          <mxGeometry width="50" height="50" relative="1" as="geometry">
            <mxPoint x="-1515" y="1075" as="sourcePoint" />
            <mxPoint x="-1225" y="1525" as="targetPoint" />
            <Array as="points">
              <mxPoint x="-1525" y="1525" />
            </Array>
          </mxGeometry>
        </mxCell>
        <mxCell id="BHKNhd8OsX8QCa_C4OJv-134" value="1" style="text;html=1;align=center;verticalAlign=middle;resizable=0;points=[];autosize=1;strokeColor=none;fillColor=none;" parent="1" vertex="1">
          <mxGeometry x="-1515" y="1445" width="30" height="30" as="geometry" />
        </mxCell>
        <mxCell id="BHKNhd8OsX8QCa_C4OJv-135" value="M" style="text;html=1;align=center;verticalAlign=middle;resizable=0;points=[];autosize=1;strokeColor=none;fillColor=none;" parent="1" vertex="1">
          <mxGeometry x="-1180" y="750" width="30" height="30" as="geometry" />
        </mxCell>
        <mxCell id="BHKNhd8OsX8QCa_C4OJv-136" value="" style="endArrow=none;html=1;rounded=0;exitX=1;exitY=0.5;exitDx=0;exitDy=0;entryX=0.002;entryY=0.619;entryDx=0;entryDy=0;entryPerimeter=0;" parent="1" source="BHKNhd8OsX8QCa_C4OJv-137" target="BHKNhd8OsX8QCa_C4OJv-93" edge="1">
          <mxGeometry width="50" height="50" relative="1" as="geometry">
            <mxPoint x="-1640" y="710" as="sourcePoint" />
            <mxPoint x="-1255" y="707" as="targetPoint" />
          </mxGeometry>
        </mxCell>
        <mxCell id="BHKNhd8OsX8QCa_C4OJv-137" value="creates" style="rhombus;whiteSpace=wrap;html=1;" parent="1" vertex="1">
          <mxGeometry x="-1575" y="670" width="80" height="80" as="geometry" />
        </mxCell>
        <mxCell id="BHKNhd8OsX8QCa_C4OJv-138" value="" style="endArrow=none;html=1;rounded=0;entryX=0;entryY=0.5;entryDx=0;entryDy=0;exitX=1.026;exitY=0.659;exitDx=0;exitDy=0;exitPerimeter=0;" parent="1" source="BHKNhd8OsX8QCa_C4OJv-79" target="BHKNhd8OsX8QCa_C4OJv-137" edge="1">
          <mxGeometry width="50" height="50" relative="1" as="geometry">
            <mxPoint x="-1842" y="707" as="sourcePoint" />
            <mxPoint x="-1590" y="715" as="targetPoint" />
          </mxGeometry>
        </mxCell>
        <mxCell id="BHKNhd8OsX8QCa_C4OJv-139" value="1" style="text;html=1;align=center;verticalAlign=middle;resizable=0;points=[];autosize=1;strokeColor=none;fillColor=none;" parent="1" vertex="1">
          <mxGeometry x="-1845" y="675" width="30" height="30" as="geometry" />
        </mxCell>
        <mxCell id="BHKNhd8OsX8QCa_C4OJv-140" value="1" style="text;html=1;align=center;verticalAlign=middle;resizable=0;points=[];autosize=1;strokeColor=none;fillColor=none;" parent="1" vertex="1">
          <mxGeometry x="-1295" y="675" width="30" height="30" as="geometry" />
        </mxCell>
        <mxCell id="BHKNhd8OsX8QCa_C4OJv-146" value="" style="endArrow=none;html=1;rounded=0;exitX=0.5;exitY=0;exitDx=0;exitDy=0;entryX=0.414;entryY=1.024;entryDx=0;entryDy=0;entryPerimeter=0;" parent="1" source="BHKNhd8OsX8QCa_C4OJv-147" target="BHKNhd8OsX8QCa_C4OJv-148" edge="1">
          <mxGeometry width="50" height="50" relative="1" as="geometry">
            <mxPoint x="-1640" y="1485" as="sourcePoint" />
            <mxPoint x="-1605" y="1445" as="targetPoint" />
          </mxGeometry>
        </mxCell>
        <mxCell id="BHKNhd8OsX8QCa_C4OJv-147" value="Review" style="rounded=0;whiteSpace=wrap;html=1;" parent="1" vertex="1">
          <mxGeometry x="-1845" y="1765" width="140" height="90" as="geometry" />
        </mxCell>
        <mxCell id="BHKNhd8OsX8QCa_C4OJv-148" value="Ride_id" style="ellipse;whiteSpace=wrap;html=1;" parent="1" vertex="1">
          <mxGeometry x="-1870" y="1635" width="100" height="60" as="geometry" />
        </mxCell>
        <mxCell id="BHKNhd8OsX8QCa_C4OJv-149" value="&lt;u&gt;Review_id&lt;/u&gt;" style="ellipse;whiteSpace=wrap;html=1;" parent="1" vertex="1">
          <mxGeometry x="-1760" y="1635" width="90" height="60" as="geometry" />
        </mxCell>
        <mxCell id="BHKNhd8OsX8QCa_C4OJv-150" value="" style="endArrow=none;html=1;rounded=0;exitX=0.75;exitY=0;exitDx=0;exitDy=0;entryX=0.256;entryY=0.917;entryDx=0;entryDy=0;entryPerimeter=0;" parent="1" source="BHKNhd8OsX8QCa_C4OJv-147" target="BHKNhd8OsX8QCa_C4OJv-149" edge="1">
          <mxGeometry width="50" height="50" relative="1" as="geometry">
            <mxPoint x="-1495" y="1595" as="sourcePoint" />
            <mxPoint x="-1615" y="1435" as="targetPoint" />
          </mxGeometry>
        </mxCell>
        <mxCell id="BHKNhd8OsX8QCa_C4OJv-151" value="" style="endArrow=none;html=1;rounded=0;exitX=0.929;exitY=0;exitDx=0;exitDy=0;entryX=0;entryY=1;entryDx=0;entryDy=0;exitPerimeter=0;" parent="1" source="BHKNhd8OsX8QCa_C4OJv-147" target="BHKNhd8OsX8QCa_C4OJv-152" edge="1">
          <mxGeometry width="50" height="50" relative="1" as="geometry">
            <mxPoint x="-1583" y="1500" as="sourcePoint" />
            <mxPoint x="-1545" y="1455" as="targetPoint" />
          </mxGeometry>
        </mxCell>
        <mxCell id="BHKNhd8OsX8QCa_C4OJv-152" value="User_id" style="ellipse;whiteSpace=wrap;html=1;" parent="1" vertex="1">
          <mxGeometry x="-1660" y="1635" width="90" height="60" as="geometry" />
        </mxCell>
        <mxCell id="BHKNhd8OsX8QCa_C4OJv-155" value="" style="endArrow=none;html=1;rounded=0;exitX=0.5;exitY=1;exitDx=0;exitDy=0;entryX=0;entryY=0.5;entryDx=0;entryDy=0;" parent="1" source="BHKNhd8OsX8QCa_C4OJv-126" target="BHKNhd8OsX8QCa_C4OJv-147" edge="1">
          <mxGeometry width="50" height="50" relative="1" as="geometry">
            <mxPoint x="-1880" y="1420" as="sourcePoint" />
            <mxPoint x="-1840" y="1835" as="targetPoint" />
            <Array as="points">
              <mxPoint x="-1880" y="1810" />
            </Array>
          </mxGeometry>
        </mxCell>
        <mxCell id="BHKNhd8OsX8QCa_C4OJv-161" value="Ratings" style="ellipse;whiteSpace=wrap;html=1;" parent="1" vertex="1">
          <mxGeometry x="-1550" y="1635" width="90" height="60" as="geometry" />
        </mxCell>
        <mxCell id="BHKNhd8OsX8QCa_C4OJv-162" value="" style="endArrow=none;html=1;rounded=0;exitX=1;exitY=0.25;exitDx=0;exitDy=0;entryX=0;entryY=1;entryDx=0;entryDy=0;" parent="1" source="BHKNhd8OsX8QCa_C4OJv-147" target="BHKNhd8OsX8QCa_C4OJv-161" edge="1">
          <mxGeometry width="50" height="50" relative="1" as="geometry">
            <mxPoint x="-1590" y="1562.5000000000002" as="sourcePoint" />
            <mxPoint x="-1520" y="1525" as="targetPoint" />
          </mxGeometry>
        </mxCell>
        <mxCell id="MwZwkZqpIUYmrQPlYnHo-1" value="M" style="text;html=1;align=center;verticalAlign=middle;resizable=0;points=[];autosize=1;strokeColor=none;fillColor=none;" parent="1" vertex="1">
          <mxGeometry x="-1875" y="1785" width="30" height="30" as="geometry" />
        </mxCell>
        <mxCell id="kVoZxQmubTXSgFx20TLx-1" value="" style="endArrow=none;html=1;rounded=0;exitX=0.25;exitY=0;exitDx=0;exitDy=0;entryX=0.704;entryY=0.95;entryDx=0;entryDy=0;entryPerimeter=0;" edge="1" parent="1" target="kVoZxQmubTXSgFx20TLx-2" source="BHKNhd8OsX8QCa_C4OJv-54">
          <mxGeometry width="50" height="50" relative="1" as="geometry">
            <mxPoint x="-1675" y="1285" as="sourcePoint" />
            <mxPoint x="-1740" y="1236" as="targetPoint" />
          </mxGeometry>
        </mxCell>
        <mxCell id="kVoZxQmubTXSgFx20TLx-2" value="Start_time" style="ellipse;whiteSpace=wrap;html=1;" vertex="1" parent="1">
          <mxGeometry x="-1660" y="1195" width="90" height="60" as="geometry" />
        </mxCell>
        <mxCell id="kVoZxQmubTXSgFx20TLx-3" value="No of Passengers" style="ellipse;whiteSpace=wrap;html=1;" vertex="1" parent="1">
          <mxGeometry x="-1850" y="1240" width="90" height="60" as="geometry" />
        </mxCell>
        <mxCell id="kVoZxQmubTXSgFx20TLx-4" value="" style="endArrow=none;html=1;rounded=0;exitX=0.033;exitY=0.134;exitDx=0;exitDy=0;entryX=1;entryY=1;entryDx=0;entryDy=0;exitPerimeter=0;" edge="1" target="kVoZxQmubTXSgFx20TLx-3" parent="1" source="BHKNhd8OsX8QCa_C4OJv-54">
          <mxGeometry width="50" height="50" relative="1" as="geometry">
            <mxPoint x="-1690" y="1365" as="sourcePoint" />
            <mxPoint x="-1707" y="1322" as="targetPoint" />
          </mxGeometry>
        </mxCell>
        <mxCell id="kVoZxQmubTXSgFx20TLx-5" value="Review_id" style="ellipse;whiteSpace=wrap;html=1;" vertex="1" parent="1">
          <mxGeometry x="-1475" y="1190" width="90" height="60" as="geometry" />
        </mxCell>
        <mxCell id="kVoZxQmubTXSgFx20TLx-6" value="" style="endArrow=none;html=1;rounded=0;exitX=0.668;exitY=0.034;exitDx=0;exitDy=0;entryX=0.37;entryY=1.015;entryDx=0;entryDy=0;entryPerimeter=0;exitPerimeter=0;" edge="1" parent="1" source="BHKNhd8OsX8QCa_C4OJv-54" target="kVoZxQmubTXSgFx20TLx-5">
          <mxGeometry width="50" height="50" relative="1" as="geometry">
            <mxPoint x="-1513" y="1315" as="sourcePoint" />
            <mxPoint x="-1400" y="1265" as="targetPoint" />
          </mxGeometry>
        </mxCell>
        <mxCell id="kVoZxQmubTXSgFx20TLx-7" value="Carpool lobby" style="rounded=0;whiteSpace=wrap;html=1;" vertex="1" parent="1">
          <mxGeometry x="-870" y="1215" width="140" height="90" as="geometry" />
        </mxCell>
        <mxCell id="kVoZxQmubTXSgFx20TLx-8" value="No of Passengers" style="ellipse;whiteSpace=wrap;html=1;" vertex="1" parent="1">
          <mxGeometry x="-960" y="1105" width="90" height="60" as="geometry" />
        </mxCell>
        <mxCell id="kVoZxQmubTXSgFx20TLx-9" value="" style="endArrow=none;html=1;rounded=0;exitX=0.25;exitY=0;exitDx=0;exitDy=0;entryX=0.704;entryY=0.95;entryDx=0;entryDy=0;entryPerimeter=0;" edge="1" source="kVoZxQmubTXSgFx20TLx-7" target="kVoZxQmubTXSgFx20TLx-8" parent="1">
          <mxGeometry width="50" height="50" relative="1" as="geometry">
            <mxPoint x="-877" y="1215" as="sourcePoint" />
            <mxPoint x="-900" y="1166" as="targetPoint" />
          </mxGeometry>
        </mxCell>
        <mxCell id="kVoZxQmubTXSgFx20TLx-10" value="Start_time" style="ellipse;whiteSpace=wrap;html=1;" vertex="1" parent="1">
          <mxGeometry x="-860" y="1105" width="100" height="60" as="geometry" />
        </mxCell>
        <mxCell id="kVoZxQmubTXSgFx20TLx-11" value="Driver_id" style="ellipse;whiteSpace=wrap;html=1;" vertex="1" parent="1">
          <mxGeometry x="-750" y="1115" width="90" height="60" as="geometry" />
        </mxCell>
        <mxCell id="kVoZxQmubTXSgFx20TLx-12" value="" style="endArrow=none;html=1;rounded=0;exitX=0.75;exitY=0;exitDx=0;exitDy=0;entryX=0.256;entryY=0.917;entryDx=0;entryDy=0;entryPerimeter=0;" edge="1" source="kVoZxQmubTXSgFx20TLx-7" target="kVoZxQmubTXSgFx20TLx-11" parent="1">
          <mxGeometry width="50" height="50" relative="1" as="geometry">
            <mxPoint x="-610" y="1335" as="sourcePoint" />
            <mxPoint x="-730" y="1175" as="targetPoint" />
          </mxGeometry>
        </mxCell>
        <mxCell id="kVoZxQmubTXSgFx20TLx-13" value="" style="endArrow=none;html=1;rounded=0;exitX=0.929;exitY=0;exitDx=0;exitDy=0;entryX=0;entryY=1;entryDx=0;entryDy=0;exitPerimeter=0;" edge="1" source="kVoZxQmubTXSgFx20TLx-7" target="kVoZxQmubTXSgFx20TLx-14" parent="1">
          <mxGeometry width="50" height="50" relative="1" as="geometry">
            <mxPoint x="-698" y="1240" as="sourcePoint" />
            <mxPoint x="-660" y="1195" as="targetPoint" />
          </mxGeometry>
        </mxCell>
        <mxCell id="kVoZxQmubTXSgFx20TLx-14" value="Vehicle_ID" style="ellipse;whiteSpace=wrap;html=1;" vertex="1" parent="1">
          <mxGeometry x="-660" y="1145" width="90" height="60" as="geometry" />
        </mxCell>
        <mxCell id="kVoZxQmubTXSgFx20TLx-15" value="" style="endArrow=none;html=1;rounded=0;exitX=0.5;exitY=0;exitDx=0;exitDy=0;entryX=0.414;entryY=1.024;entryDx=0;entryDy=0;entryPerimeter=0;" edge="1" source="kVoZxQmubTXSgFx20TLx-7" target="kVoZxQmubTXSgFx20TLx-10" parent="1">
          <mxGeometry width="50" height="50" relative="1" as="geometry">
            <mxPoint x="-755" y="1225" as="sourcePoint" />
            <mxPoint x="-720" y="1185" as="targetPoint" />
          </mxGeometry>
        </mxCell>
        <mxCell id="kVoZxQmubTXSgFx20TLx-16" value="" style="endArrow=none;html=1;rounded=0;exitX=0;exitY=1;exitDx=0;exitDy=0;entryX=1;entryY=0.5;entryDx=0;entryDy=0;" edge="1" parent="1" source="BHKNhd8OsX8QCa_C4OJv-13" target="kVoZxQmubTXSgFx20TLx-17">
          <mxGeometry width="50" height="50" relative="1" as="geometry">
            <mxPoint x="-230" y="1155" as="sourcePoint" />
            <mxPoint x="-515" y="1675" as="targetPoint" />
            <Array as="points">
              <mxPoint x="-5" y="1260" />
              <mxPoint x="-240" y="1260" />
            </Array>
          </mxGeometry>
        </mxCell>
        <mxCell id="kVoZxQmubTXSgFx20TLx-17" value="Create" style="rhombus;whiteSpace=wrap;html=1;" vertex="1" parent="1">
          <mxGeometry x="-475" y="1220" width="80" height="80" as="geometry" />
        </mxCell>
        <mxCell id="kVoZxQmubTXSgFx20TLx-18" value="" style="endArrow=none;html=1;rounded=0;exitX=1;exitY=0.5;exitDx=0;exitDy=0;entryX=0;entryY=0.5;entryDx=0;entryDy=0;" edge="1" parent="1" source="kVoZxQmubTXSgFx20TLx-7" target="kVoZxQmubTXSgFx20TLx-17">
          <mxGeometry width="50" height="50" relative="1" as="geometry">
            <mxPoint x="-740" y="1248.33" as="sourcePoint" />
            <mxPoint x="-480" y="1248.33" as="targetPoint" />
          </mxGeometry>
        </mxCell>
        <mxCell id="kVoZxQmubTXSgFx20TLx-22" value="Join" style="rhombus;whiteSpace=wrap;html=1;" vertex="1" parent="1">
          <mxGeometry x="-1060" y="980" width="80" height="80" as="geometry" />
        </mxCell>
        <mxCell id="kVoZxQmubTXSgFx20TLx-23" value="" style="endArrow=none;html=1;rounded=0;exitX=1;exitY=0.75;exitDx=0;exitDy=0;entryX=0.5;entryY=0;entryDx=0;entryDy=0;" edge="1" target="kVoZxQmubTXSgFx20TLx-22" parent="1" source="BHKNhd8OsX8QCa_C4OJv-93">
          <mxGeometry width="50" height="50" relative="1" as="geometry">
            <mxPoint x="-415" y="995" as="sourcePoint" />
            <mxPoint x="-925" y="1435" as="targetPoint" />
            <Array as="points">
              <mxPoint x="-1020" y="723" />
            </Array>
          </mxGeometry>
        </mxCell>
        <mxCell id="kVoZxQmubTXSgFx20TLx-24" value="" style="endArrow=none;html=1;rounded=0;exitX=0.5;exitY=1;exitDx=0;exitDy=0;entryX=0;entryY=0.5;entryDx=0;entryDy=0;" edge="1" parent="1" source="kVoZxQmubTXSgFx20TLx-22" target="kVoZxQmubTXSgFx20TLx-7">
          <mxGeometry width="50" height="50" relative="1" as="geometry">
            <mxPoint x="-1037.5" y="1155" as="sourcePoint" />
            <mxPoint x="-792.5" y="1335" as="targetPoint" />
            <Array as="points">
              <mxPoint x="-1020" y="1260" />
            </Array>
          </mxGeometry>
        </mxCell>
        <mxCell id="kVoZxQmubTXSgFx20TLx-25" value="Model" style="ellipse;whiteSpace=wrap;html=1;" vertex="1" parent="1">
          <mxGeometry x="-505" y="1560" width="90" height="60" as="geometry" />
        </mxCell>
        <mxCell id="kVoZxQmubTXSgFx20TLx-26" value="" style="endArrow=none;html=1;rounded=0;exitX=0;exitY=0.5;exitDx=0;exitDy=0;entryX=1;entryY=0.5;entryDx=0;entryDy=0;" edge="1" parent="1" source="BHKNhd8OsX8QCa_C4OJv-24" target="kVoZxQmubTXSgFx20TLx-25">
          <mxGeometry width="50" height="50" relative="1" as="geometry">
            <mxPoint x="-332" y="1589" as="sourcePoint" />
            <mxPoint x="-425" y="1580" as="targetPoint" />
          </mxGeometry>
        </mxCell>
        <mxCell id="kVoZxQmubTXSgFx20TLx-27" value="Color" style="ellipse;whiteSpace=wrap;html=1;" vertex="1" parent="1">
          <mxGeometry x="-505" y="1640" width="90" height="60" as="geometry" />
        </mxCell>
        <mxCell id="kVoZxQmubTXSgFx20TLx-28" value="" style="endArrow=none;html=1;rounded=0;exitX=0;exitY=0.75;exitDx=0;exitDy=0;entryX=1;entryY=0.5;entryDx=0;entryDy=0;" edge="1" parent="1" source="BHKNhd8OsX8QCa_C4OJv-24" target="kVoZxQmubTXSgFx20TLx-27">
          <mxGeometry width="50" height="50" relative="1" as="geometry">
            <mxPoint x="-320" y="1600" as="sourcePoint" />
            <mxPoint x="-405" y="1600" as="targetPoint" />
          </mxGeometry>
        </mxCell>
        <mxCell id="kVoZxQmubTXSgFx20TLx-29" value="" style="endArrow=none;html=1;rounded=0;exitX=1;exitY=0.75;exitDx=0;exitDy=0;entryX=0.5;entryY=0;entryDx=0;entryDy=0;" edge="1" target="kVoZxQmubTXSgFx20TLx-30" parent="1" source="kVoZxQmubTXSgFx20TLx-7">
          <mxGeometry width="50" height="50" relative="1" as="geometry">
            <mxPoint x="-837.5" y="1355" as="sourcePoint" />
            <mxPoint x="-757.5" y="1623.33" as="targetPoint" />
            <Array as="points">
              <mxPoint x="-690" y="1283" />
            </Array>
          </mxGeometry>
        </mxCell>
        <mxCell id="kVoZxQmubTXSgFx20TLx-30" value="Shows" style="rhombus;whiteSpace=wrap;html=1;" vertex="1" parent="1">
          <mxGeometry x="-720" y="1775" width="80" height="80" as="geometry" />
        </mxCell>
        <mxCell id="kVoZxQmubTXSgFx20TLx-31" value="" style="endArrow=none;html=1;rounded=0;exitX=0.25;exitY=1;exitDx=0;exitDy=0;entryX=1;entryY=0.5;entryDx=0;entryDy=0;" edge="1" target="kVoZxQmubTXSgFx20TLx-30" parent="1" source="BHKNhd8OsX8QCa_C4OJv-24">
          <mxGeometry width="50" height="50" relative="1" as="geometry">
            <mxPoint x="-282.5" y="1610" as="sourcePoint" />
            <mxPoint x="-792.5" y="2050" as="targetPoint" />
            <Array as="points">
              <mxPoint x="-320" y="1670" />
              <mxPoint x="-450" y="1815" />
            </Array>
          </mxGeometry>
        </mxCell>
        <mxCell id="kVoZxQmubTXSgFx20TLx-32" value="" style="endArrow=none;html=1;rounded=0;exitX=0;exitY=0.75;exitDx=0;exitDy=0;entryX=0.5;entryY=0;entryDx=0;entryDy=0;" edge="1" target="kVoZxQmubTXSgFx20TLx-33" parent="1" source="kVoZxQmubTXSgFx20TLx-7">
          <mxGeometry width="50" height="50" relative="1" as="geometry">
            <mxPoint x="-935" y="1290" as="sourcePoint" />
            <mxPoint x="-962.5" y="1630.33" as="targetPoint" />
            <Array as="points">
              <mxPoint x="-910" y="1283" />
            </Array>
          </mxGeometry>
        </mxCell>
        <mxCell id="kVoZxQmubTXSgFx20TLx-33" value="Has" style="rhombus;whiteSpace=wrap;html=1;" vertex="1" parent="1">
          <mxGeometry x="-950" y="1775" width="80" height="80" as="geometry" />
        </mxCell>
        <mxCell id="kVoZxQmubTXSgFx20TLx-34" value="" style="endArrow=none;html=1;rounded=0;entryX=0;entryY=0.5;entryDx=0;entryDy=0;exitX=1;exitY=0.5;exitDx=0;exitDy=0;" edge="1" target="kVoZxQmubTXSgFx20TLx-33" parent="1" source="BHKNhd8OsX8QCa_C4OJv-147">
          <mxGeometry width="50" height="50" relative="1" as="geometry">
            <mxPoint x="-1210" y="1740" as="sourcePoint" />
            <mxPoint x="-1022.5" y="2050" as="targetPoint" />
            <Array as="points">
              <mxPoint x="-1010" y="1815" />
            </Array>
          </mxGeometry>
        </mxCell>
        <mxCell id="kVoZxQmubTXSgFx20TLx-35" value="Review_ID" style="ellipse;whiteSpace=wrap;html=1;" vertex="1" parent="1">
          <mxGeometry x="-580" y="1190" width="90" height="60" as="geometry" />
        </mxCell>
        <mxCell id="kVoZxQmubTXSgFx20TLx-36" value="" style="endArrow=none;html=1;rounded=0;exitX=1;exitY=0.25;exitDx=0;exitDy=0;entryX=0;entryY=0.5;entryDx=0;entryDy=0;" edge="1" parent="1" source="kVoZxQmubTXSgFx20TLx-7" target="kVoZxQmubTXSgFx20TLx-35">
          <mxGeometry width="50" height="50" relative="1" as="geometry">
            <mxPoint x="-909" y="1347" as="sourcePoint" />
            <mxPoint x="-850" y="1260" as="targetPoint" />
          </mxGeometry>
        </mxCell>
        <mxCell id="kVoZxQmubTXSgFx20TLx-37" value="License Number" style="ellipse;whiteSpace=wrap;html=1;" vertex="1" parent="1">
          <mxGeometry x="50" y="920" width="100" height="60" as="geometry" />
        </mxCell>
        <mxCell id="kVoZxQmubTXSgFx20TLx-38" value="" style="endArrow=none;html=1;rounded=0;exitX=0.839;exitY=0.02;exitDx=0;exitDy=0;entryX=0.414;entryY=1.024;entryDx=0;entryDy=0;entryPerimeter=0;exitPerimeter=0;" edge="1" target="kVoZxQmubTXSgFx20TLx-37" parent="1" source="BHKNhd8OsX8QCa_C4OJv-13">
          <mxGeometry width="50" height="50" relative="1" as="geometry">
            <mxPoint x="-40" y="1135" as="sourcePoint" />
            <mxPoint x="40" y="1105" as="targetPoint" />
          </mxGeometry>
        </mxCell>
        <mxCell id="kVoZxQmubTXSgFx20TLx-39" value="CNIC Expiry date" style="ellipse;whiteSpace=wrap;html=1;" vertex="1" parent="1">
          <mxGeometry x="-100" y="940" width="100" height="60" as="geometry" />
        </mxCell>
        <mxCell id="kVoZxQmubTXSgFx20TLx-40" value="" style="endArrow=none;html=1;rounded=0;entryX=0.414;entryY=1.024;entryDx=0;entryDy=0;entryPerimeter=0;exitX=0.357;exitY=0.014;exitDx=0;exitDy=0;exitPerimeter=0;" edge="1" target="kVoZxQmubTXSgFx20TLx-39" parent="1" source="BHKNhd8OsX8QCa_C4OJv-13">
          <mxGeometry width="50" height="50" relative="1" as="geometry">
            <mxPoint x="-100" y="950" as="sourcePoint" />
            <mxPoint x="50" y="1115" as="targetPoint" />
          </mxGeometry>
        </mxCell>
        <mxCell id="kVoZxQmubTXSgFx20TLx-41" value="CNIC Pic&amp;nbsp;&lt;div&gt;(front back)&lt;/div&gt;" style="ellipse;whiteSpace=wrap;html=1;" vertex="1" parent="1">
          <mxGeometry x="140" y="960" width="100" height="60" as="geometry" />
        </mxCell>
        <mxCell id="kVoZxQmubTXSgFx20TLx-42" value="" style="endArrow=none;html=1;rounded=0;exitX=0.893;exitY=0.012;exitDx=0;exitDy=0;entryX=0.414;entryY=1.024;entryDx=0;entryDy=0;entryPerimeter=0;exitPerimeter=0;" edge="1" target="kVoZxQmubTXSgFx20TLx-41" parent="1" source="BHKNhd8OsX8QCa_C4OJv-13">
          <mxGeometry width="50" height="50" relative="1" as="geometry">
            <mxPoint x="47" y="1165" as="sourcePoint" />
            <mxPoint x="60" y="1125" as="targetPoint" />
          </mxGeometry>
        </mxCell>
        <mxCell id="kVoZxQmubTXSgFx20TLx-43" value="CNIC Number" style="ellipse;whiteSpace=wrap;html=1;" vertex="1" parent="1">
          <mxGeometry x="-200" y="960" width="100" height="60" as="geometry" />
        </mxCell>
        <mxCell id="kVoZxQmubTXSgFx20TLx-44" value="" style="endArrow=none;html=1;rounded=0;exitX=0.168;exitY=0.04;exitDx=0;exitDy=0;entryX=1;entryY=1;entryDx=0;entryDy=0;exitPerimeter=0;" edge="1" target="kVoZxQmubTXSgFx20TLx-43" parent="1" source="BHKNhd8OsX8QCa_C4OJv-13">
          <mxGeometry width="50" height="50" relative="1" as="geometry">
            <mxPoint x="-30" y="1200" as="sourcePoint" />
            <mxPoint x="-17" y="1160" as="targetPoint" />
          </mxGeometry>
        </mxCell>
        <mxCell id="kVoZxQmubTXSgFx20TLx-49" value="License Expiry date" style="ellipse;whiteSpace=wrap;html=1;" vertex="1" parent="1">
          <mxGeometry x="-15" y="980" width="100" height="60" as="geometry" />
        </mxCell>
        <mxCell id="kVoZxQmubTXSgFx20TLx-50" value="" style="endArrow=none;html=1;rounded=0;entryX=0.414;entryY=1.024;entryDx=0;entryDy=0;entryPerimeter=0;exitX=0.691;exitY=-0.003;exitDx=0;exitDy=0;exitPerimeter=0;" edge="1" target="kVoZxQmubTXSgFx20TLx-49" parent="1" source="BHKNhd8OsX8QCa_C4OJv-13">
          <mxGeometry width="50" height="50" relative="1" as="geometry">
            <mxPoint x="60" y="1159" as="sourcePoint" />
            <mxPoint x="60" y="1125" as="targetPoint" />
          </mxGeometry>
        </mxCell>
        <mxCell id="kVoZxQmubTXSgFx20TLx-51" value="Passenger_id" style="ellipse;whiteSpace=wrap;html=1;" vertex="1" parent="1">
          <mxGeometry x="-1760" y="1215" width="90" height="60" as="geometry" />
        </mxCell>
        <mxCell id="kVoZxQmubTXSgFx20TLx-52" value="" style="endArrow=none;html=1;rounded=0;exitX=0;exitY=0;exitDx=0;exitDy=0;entryX=0.5;entryY=1;entryDx=0;entryDy=0;" edge="1" target="kVoZxQmubTXSgFx20TLx-51" parent="1" source="BHKNhd8OsX8QCa_C4OJv-54">
          <mxGeometry width="50" height="50" relative="1" as="geometry">
            <mxPoint x="-1782.5" y="1275" as="sourcePoint" />
            <mxPoint x="-1747.5" y="1235" as="targetPoint" />
          </mxGeometry>
        </mxCell>
        <mxCell id="kVoZxQmubTXSgFx20TLx-53" value="Passenger Fare" style="ellipse;whiteSpace=wrap;html=1;" vertex="1" parent="1">
          <mxGeometry x="-1340" y="530" width="100" height="60" as="geometry" />
        </mxCell>
        <mxCell id="kVoZxQmubTXSgFx20TLx-54" value="" style="endArrow=none;html=1;rounded=0;exitX=0.25;exitY=0;exitDx=0;exitDy=0;entryX=0.5;entryY=1;entryDx=0;entryDy=0;" edge="1" target="kVoZxQmubTXSgFx20TLx-53" parent="1" source="BHKNhd8OsX8QCa_C4OJv-93">
          <mxGeometry width="50" height="50" relative="1" as="geometry">
            <mxPoint x="-1195" y="677.5" as="sourcePoint" />
            <mxPoint x="-1215" y="622.5" as="targetPoint" />
          </mxGeometry>
        </mxCell>
        <mxCell id="kVoZxQmubTXSgFx20TLx-55" value="Passenger CNIC" style="ellipse;whiteSpace=wrap;html=1;" vertex="1" parent="1">
          <mxGeometry x="-1430" y="580" width="100" height="60" as="geometry" />
        </mxCell>
        <mxCell id="kVoZxQmubTXSgFx20TLx-56" value="" style="endArrow=none;html=1;rounded=0;exitX=0;exitY=0;exitDx=0;exitDy=0;entryX=0.414;entryY=1.024;entryDx=0;entryDy=0;entryPerimeter=0;" edge="1" target="kVoZxQmubTXSgFx20TLx-55" parent="1" source="BHKNhd8OsX8QCa_C4OJv-93">
          <mxGeometry width="50" height="50" relative="1" as="geometry">
            <mxPoint x="-1295" y="692.5" as="sourcePoint" />
            <mxPoint x="-1290" y="660" as="targetPoint" />
          </mxGeometry>
        </mxCell>
        <mxCell id="kVoZxQmubTXSgFx20TLx-57" value="Passenger Email" style="ellipse;whiteSpace=wrap;html=1;" vertex="1" parent="1">
          <mxGeometry x="-1030" y="600" width="100" height="60" as="geometry" />
        </mxCell>
        <mxCell id="kVoZxQmubTXSgFx20TLx-58" value="" style="endArrow=none;html=1;rounded=0;exitX=1;exitY=0;exitDx=0;exitDy=0;entryX=0.414;entryY=1.024;entryDx=0;entryDy=0;entryPerimeter=0;" edge="1" target="kVoZxQmubTXSgFx20TLx-57" parent="1" source="BHKNhd8OsX8QCa_C4OJv-93">
          <mxGeometry width="50" height="50" relative="1" as="geometry">
            <mxPoint x="-1060" y="720" as="sourcePoint" />
            <mxPoint x="-905" y="705" as="targetPoint" />
          </mxGeometry>
        </mxCell>
        <mxCell id="kVoZxQmubTXSgFx20TLx-60" value="Driver Name" style="ellipse;whiteSpace=wrap;html=1;" vertex="1" parent="1">
          <mxGeometry x="-180" y="1060" width="90" height="60" as="geometry" />
        </mxCell>
        <mxCell id="kVoZxQmubTXSgFx20TLx-61" value="" style="endArrow=none;html=1;rounded=0;exitX=0;exitY=0;exitDx=0;exitDy=0;entryX=1;entryY=1;entryDx=0;entryDy=0;" edge="1" target="kVoZxQmubTXSgFx20TLx-60" parent="1" source="BHKNhd8OsX8QCa_C4OJv-13">
          <mxGeometry width="50" height="50" relative="1" as="geometry">
            <mxPoint x="246" y="1186.5" as="sourcePoint" />
            <mxPoint x="314" y="1154.5" as="targetPoint" />
          </mxGeometry>
        </mxCell>
      </root>
    </mxGraphModel>
  </diagram>
</mxfile>
